<?xml version="1.0" encoding="utf-8"?>
<!-- Generator: Adobe Illustrator 26.4.1, SVG Export Plug-In . SVG Version: 6.00 Build 0)  -->
<svg version="1.1" id="Layer_1" xmlns="http://www.w3.org/2000/svg" xmlns:xlink="http://www.w3.org/1999/xlink" x="0px" y="0px"
	 viewBox="0 0 1000 1000" style="enable-background:new 0 0 1000 1000;" xml:space="preserve">
<style type="text/css">
	.st0{fill:#FFFFFF;}
	.st1{fill:#231F20;}
</style>
<g>
	<g>
		<g>
			<path class="st0" d="M69.03,630.53h197.3c17.61,0,31.88-14.27,31.88-31.88v-197.3c0-17.61-14.27-31.88-31.88-31.88H69.03
				c-17.61,0-31.88,14.27-31.88,31.88v197.3C37.15,616.26,51.42,630.53,69.03,630.53z"/>
			<g>
				<path class="st1" d="M131,528.97c-23.75,0-43.01,19.26-43.01,43.01v0c0,6.55,0.57,11.87,1.73,15.97c1.15,4.1,3.62,7.28,7.4,9.54
					c3.78,2.26,9.4,3.39,16.87,3.39h53.51c9.31,0,17.67-0.6,25.1-1.8c7.42-1.2,14.36-3.27,20.81-6.22
					c6.45-2.95,12.4-6.87,17.84-11.75c6.91-6.36,12.58-13.57,17.01-21.64c4.42-8.07,7.7-17.12,9.82-27.17
					c0.23-1.08,0.4-2.22,0.6-3.33H131z"/>
				<path class="st1" d="M258.69,470.09c-4.27-22.68-13.96-40.54-29.12-53.52c-8.11-7.1-17.14-11.94-27.1-14.52
					c-9.95-2.58-21.89-3.87-35.81-3.87h-53.51c-8.85,0-15.26,1.98-19.22,5.95c-3.96,3.96-5.94,10.37-5.94,19.22v0
					c0,25.82,20.93,46.74,46.74,46.74H258.69z"/>
			</g>
		</g>
		<g>
			<path class="st0" d="M489.95,390.53c4.4,0,8.21,1.57,11.45,4.71c3.23,3.23,4.85,7.09,4.85,11.58v116.89
				c-0.09,21.37-7.72,39.55-22.89,54.54c-15.17,15.08-33.4,22.62-54.67,22.62c-21.37,0-39.64-7.59-54.81-22.76
				c-15.17-15.17-22.76-33.44-22.76-54.81c0-21.37,7.59-39.64,22.76-54.81c15.17-15.17,33.44-22.76,54.81-22.76
				c19.48,0,34.34,4.49,44.58,13.47v-52.39c0-4.49,1.62-8.35,4.85-11.58c3.23-3.14,7.05-4.71,11.45-4.71H489.95z M397.03,492.07
				c-8.62,8.71-12.93,19.26-12.93,31.65c0,12.3,4.31,22.8,12.93,31.51c8.71,8.71,19.26,13.06,31.65,13.06
				c12.3,0,22.8-4.35,31.51-13.06c8.71-8.71,13.06-19.21,13.06-31.51c0-12.39-4.36-22.94-13.06-31.65
				c-8.71-8.71-19.21-13.06-31.51-13.06C416.29,479.01,405.74,483.36,397.03,492.07z"/>
			<path class="st0" d="M665.55,468.5c15.17,15.17,22.76,33.44,22.76,54.81v61.27c0,4.58-1.62,8.4-4.85,11.45
				c-3.23,3.23-7.05,4.85-11.45,4.85h-0.4c-4.4,0-8.21-1.62-11.45-4.85c-3.23-3.05-4.85-6.87-4.85-11.45
				c-10.23,10.86-25.09,16.3-44.58,16.3c-21.37,0-39.64-7.59-54.81-22.76c-15.17-15.17-22.76-33.44-22.76-54.81
				c0-21.37,7.58-39.64,22.76-54.81c15.17-15.17,33.44-22.76,54.81-22.76C632.11,445.74,650.38,453.33,665.55,468.5z M579.1,491.8
				c-8.62,8.71-12.93,19.21-12.93,31.51c0,12.39,4.31,22.94,12.93,31.65c8.71,8.62,19.26,12.93,31.65,12.93
				c12.39,0,22.89-4.31,31.51-12.93c8.71-8.71,13.06-19.26,13.06-31.65c0-12.3-4.36-22.8-13.06-31.51
				c-8.71-8.71-19.21-13.06-31.51-13.06C598.36,478.74,587.81,483.09,579.1,491.8z"/>
			<path class="st0" d="M757.03,478.74c-3.89,0-7.15,1.35-9.8,4.04c-2.65,2.78-3.98,6.11-3.98,9.96c0,5.39,2.56,9.43,7.68,12.12
				c1.77,0.99,9.14,3.23,22.13,6.73c10.51,3.05,18.32,7.05,23.45,11.99c7.33,7.09,11,17.19,11,30.3c0,12.93-4.5,24.02-13.51,33.26
				c-9.1,9.16-20,13.74-32.72,13.74h-34.58c-4.33,0-8.08-1.62-11.26-4.85c-3.18-3.05-4.77-6.87-4.77-11.45v-0.27
				c0-4.49,1.59-8.35,4.77-11.58c3.18-3.23,6.93-4.85,11.26-4.85h35.9c3.88,0,7.15-1.35,9.8-4.04c2.65-2.69,3.97-6.01,3.97-9.97
				c0-4.94-2.52-8.66-7.55-11.18c-1.32-0.63-8.74-2.87-22.26-6.73c-10.51-3.14-18.33-7.27-23.45-12.39c-7.33-7.27-11-17.55-11-30.84
				c0-12.93,4.51-23.97,13.51-33.13c9.1-9.25,20-13.87,32.72-13.87h24.38c4.42,0,8.21,1.62,11.39,4.85
				c3.18,3.23,4.77,7.09,4.77,11.58v0.27c0,4.58-1.59,8.39-4.77,11.45c-3.18,3.23-6.98,4.85-11.39,4.85H757.03z"/>
			<path class="st0" d="M849.33,390.53c4.4,0,8.21,1.57,11.45,4.71c3.23,3.23,4.85,7.09,4.85,11.58v46.86
				c7.09-5.3,17.82-7.95,32.19-7.95c17.86,0,33.17,6.38,45.92,19.12c12.75,12.75,19.12,28.1,19.12,46.06v73.66
				c0,4.58-1.62,8.4-4.85,11.45c-3.05,3.23-6.87,4.85-11.45,4.85h-0.27c-4.49,0-8.35-1.62-11.58-4.85
				c-3.23-3.05-4.85-6.87-4.85-11.45v-73.66c0-8.89-3.1-16.47-9.29-22.76c-6.28-6.28-13.87-9.43-22.76-9.43
				c-8.98,0-16.61,3.14-22.89,9.43c-6.2,6.29-9.29,13.87-9.29,22.76v73.66c0,4.58-1.62,8.4-4.85,11.45
				c-3.23,3.23-7.05,4.85-11.45,4.85h-0.4c-4.4,0-8.21-1.62-11.45-4.85c-3.23-3.05-4.85-6.87-4.85-11.45V406.82
				c0-4.49,1.62-8.35,4.85-11.58c3.23-3.14,7.05-4.71,11.45-4.71H849.33z"/>
		</g>
	</g>
</g>
</svg>
