<?xml version="1.0" encoding="utf-8"?>
<!-- Generator: Adobe Illustrator 26.4.1, SVG Export Plug-In . SVG Version: 6.00 Build 0)  -->
<svg version="1.1" id="Layer_1" xmlns="http://www.w3.org/2000/svg" xmlns:xlink="http://www.w3.org/1999/xlink" x="0px" y="0px"
	 viewBox="0 0 1000 1000" style="enable-background:new 0 0 1000 1000;" xml:space="preserve">
<style type="text/css">
	.st0{fill:#2A317E;}
	.st1{fill:#FFFFFF;}
</style>
<g>
	<g>
		<g>
			<path class="st0" d="M170.34,896.71h599.63c53.51,0,96.89-43.38,96.89-96.89V200.19c0-53.51-43.38-96.89-96.89-96.89H170.34
				c-53.51,0-96.89,43.38-96.89,96.89v599.63C73.45,853.33,116.83,896.71,170.34,896.71z"/>
			<g>
				<path class="st1" d="M358.68,588.04c-72.2,0-130.72,58.53-130.72,130.72v0c0,19.89,1.75,36.08,5.25,48.54
					c3.5,12.47,10.99,22.13,22.48,28.99c11.48,6.87,28.57,10.29,51.26,10.29h162.62c28.29,0,53.72-1.82,76.27-5.47
					c22.55-3.64,43.63-9.93,63.24-18.91c19.61-8.96,37.67-20.87,54.21-35.72c21.01-19.33,38.24-41.25,51.69-65.76
					c13.45-24.51,23.39-52.04,29.84-82.57c0.69-3.29,1.2-6.76,1.82-10.12H358.68z"/>
				<path class="st1" d="M746.76,409.1c-12.98-68.94-42.42-123.21-88.5-162.66c-24.65-21.57-52.11-36.28-82.36-44.12
					c-30.25-7.84-66.54-11.77-108.84-11.77H304.43c-26.9,0-46.37,6.03-58.41,18.07c-12.05,12.05-18.07,31.51-18.07,58.41v0
					c0,78.46,63.6,142.07,142.07,142.07H746.76z"/>
			</g>
		</g>
	</g>
</g>
</svg>
